<svg width="70" height="50" viewBox="0 0 70 50" fill="none" xmlns="http://www.w3.org/2000/svg">
<path d="M0 17.998C0 8.05664 8.05439 0 17.9833 0H51.9679C61.9066 0 69.9512 8.05664 69.9512 17.998V50H0V17.998Z" fill="#F9F9FA"/>
<path d="M51.9777 0.976562C56.5272 0.976562 60.7936 2.74414 64.0153 5.9668C67.2273 9.17969 69.0042 13.457 69.0042 18.0078V49.0234H0.97629V17.998C0.97629 13.457 2.74338 9.17969 5.96513 5.9668C9.17713 2.74414 13.4533 0.976562 17.9833 0.976562H51.9777ZM51.9777 0H17.9833C8.05439 0 0 8.05664 0 17.998V50H69.9609V17.998C69.9609 8.05664 61.9066 0 51.9777 0Z" fill="#909090"/>
<path d="M41.991 35.9961C41.991 39.8633 38.8571 42.998 34.991 42.998C31.1249 42.998 27.991 39.8633 27.991 35.9961C27.991 32.1289 31.1249 28.9941 34.991 28.9941C38.8571 28.9941 41.991 32.1387 41.991 35.9961Z" fill="white"/>
<path d="M34.991 29.0039C31.1249 29.0039 27.991 32.1387 27.991 36.0059C27.991 39.873 31.1249 43.0078 34.991 43.0078C38.8571 43.0078 41.991 39.873 41.991 36.0059C41.991 32.1387 38.8571 29.0039 34.991 29.0039ZM34.991 42.002C31.6813 42.002 28.9965 39.3164 28.9965 36.0059C28.9965 32.6953 31.6813 30.0098 34.991 30.0098C38.3006 30.0098 40.9854 32.6953 40.9854 36.0059C40.9854 39.3164 38.3006 42.002 34.991 42.002Z" fill="#909090"/>
<path d="M41.991 17.002C41.991 20.8691 38.8571 24.0039 34.991 24.0039C31.1249 24.0039 27.991 20.8691 27.991 17.002C27.991 13.1348 31.1249 10 34.991 10C38.8571 10 41.991 13.1348 41.991 17.002Z" fill="white"/>
<path d="M34.991 10C31.1249 10 27.991 13.1348 27.991 17.002C27.991 20.8691 31.1249 24.0039 34.991 24.0039C38.8571 24.0039 41.991 20.8691 41.991 17.002C41.991 13.1348 38.8571 10 34.991 10ZM34.991 22.998C31.6813 22.998 28.9965 20.3125 28.9965 17.002C28.9965 13.6914 31.6813 11.0059 34.991 11.0059C38.3006 11.0059 40.9854 13.6914 40.9854 17.002C40.9854 20.3125 38.3006 22.998 34.991 22.998Z" fill="#909090"/>
</svg>
