<svg width="70" height="50" viewBox="0 0 70 50" fill="none" xmlns="http://www.w3.org/2000/svg">
<path d="M0 17.998C0 8.05664 8.05439 0 17.9833 0H51.9679C61.9066 0 69.9512 8.05664 69.9512 17.998V50H0V17.998Z" fill="#F9F9FA"/>
<path d="M51.9777 0.976562C56.5272 0.976562 60.7936 2.74414 64.0153 5.9668C67.2273 9.17969 69.0042 13.457 69.0042 18.0078V49.0234H0.97629V17.998C0.97629 13.457 2.74338 9.17969 5.96513 5.9668C9.17713 2.74414 13.4533 0.976562 17.9833 0.976562H51.9777ZM51.9777 0H17.9833C8.05439 0 0 8.05664 0 17.998V50H69.9609V17.998C69.9609 8.05664 61.9066 0 51.9777 0Z" fill="#909090"/>
<mask id="mask0" mask-type="alpha" maskUnits="userSpaceOnUse" x="28" y="10" width="15" height="39">
<path d="M28.0005 12C28.0005 10.8954 28.8959 10 30.0005 10H40.0005C41.105 10 42.0005 10.8954 42.0005 12V49H28.0005V12Z" fill="#C4C4C4"/>
</mask>
<g mask="url(#mask0)">
<path d="M27.9901 12.002C27.9901 10.8984 28.8882 10 29.9915 10H39.9887C41.0919 10 41.9901 10.8984 41.9901 12.002V49.0039H27.9901V12.002Z" fill="#909090"/>
<path d="M34.9901 27.002C38.8562 27.002 41.9901 23.8672 41.9901 20C41.9901 16.1328 38.8562 12.998 34.9901 12.998C31.124 12.998 27.9901 16.1328 27.9901 20C27.9901 23.8672 31.124 27.002 34.9901 27.002ZM41.9901 35.9961C41.9901 39.8633 38.8562 42.9981 34.9901 42.9981C31.124 42.9981 27.9901 39.8633 27.9901 35.9961C27.9901 32.1289 31.124 28.9941 34.9901 28.9941C38.8562 28.9941 41.9901 32.1387 41.9901 35.9961ZM41.9901 52.002C41.9901 55.8692 38.8562 59.0039 34.9901 59.0039C31.124 59.0039 27.9901 55.8692 27.9901 52.002C27.9901 48.1348 31.124 45 34.9901 45C38.8562 45 41.9901 48.1348 41.9901 52.002Z" fill="white"/>
<path d="M40.985 10.498C40.985 10.2246 41.2097 10 41.4831 10C41.7565 10 41.9811 10.2246 41.9811 10.498V50H40.985V10.498Z" fill="#909090"/>
<path d="M27.9901 10.498C27.9901 10.2246 28.2147 10 28.4881 10C28.7615 10 28.9861 10.2246 28.9861 10.498V50H27.9901V10.498Z" fill="#909090"/>
</g>
</svg>
