<svg width="70" height="50" viewBox="0 0 70 50" fill="none" xmlns="http://www.w3.org/2000/svg">
<path d="M0 17.998C0 8.05664 8.05439 0 17.9833 0H51.9679C61.9066 0 69.9512 8.05664 69.9512 17.998V50H0V17.998Z" fill="#F9F9FA"/>
<path d="M51.9777 0.976562C56.5272 0.976562 60.7936 2.74414 64.0153 5.9668C67.2273 9.17969 69.0042 13.457 69.0042 18.0078V49.0234H0.97629V17.998C0.97629 13.457 2.74338 9.17969 5.96513 5.9668C9.17713 2.74414 13.4533 0.976562 17.9833 0.976562H51.9777ZM51.9777 0H17.9833C8.05439 0 0 8.05664 0 17.998V50H69.9609V17.998C69.9609 8.05664 61.9066 0 51.9777 0Z" fill="#909090"/>
<mask id="mask0" mask-type="alpha" maskUnits="userSpaceOnUse" x="28" y="10" width="15" height="40">
<path d="M28.9958 10.1953C28.9958 10.0879 29.0837 10 29.191 10H42.8005C42.9079 10 42.9958 10.0879 42.9958 10.1953V49.0039H28.9958V10.1953Z" fill="#A5A5A5"/>
</mask>
<g mask="url(#mask0)">
<path d="M28.9958 12.002C28.9958 10.8984 29.894 10 30.9972 10H40.9944C42.0976 10 42.9958 10.8984 42.9958 12.002V49.0039H28.9958V12.002Z" fill="#909090"/>
<path d="M30.9884 12.998C31.5449 12.998 31.9842 12.5488 31.9842 12.002C31.9842 11.4453 31.5352 11.0059 30.9884 11.0059C30.4319 11.0059 29.9926 11.4551 29.9926 12.002C29.9926 12.5488 30.4417 12.998 30.9884 12.998ZM40.9856 12.998C41.5421 12.998 41.9815 12.5488 41.9815 12.002C41.9815 11.4453 41.5324 11.0059 40.9856 11.0059C40.4389 11.0059 39.9898 11.4551 39.9898 12.002C39.9898 12.5488 40.4389 12.998 40.9856 12.998ZM41.9912 17.998C41.9912 21.3086 39.3064 23.9941 35.9968 23.9941C32.6872 23.9941 30.0024 21.3086 30.0024 17.998C30.0024 14.6875 32.6872 12.002 35.9968 12.002C39.3064 12.002 41.9912 14.6875 41.9912 17.998ZM30.9884 25C31.5449 25 31.9842 24.5508 31.9842 24.0039C31.9842 23.457 31.5352 23.0078 30.9884 23.0078C30.4417 23.0078 29.9926 23.457 29.9926 24.0039C29.9926 24.5508 30.4417 25 30.9884 25ZM41.9912 24.0039C41.9912 24.5605 41.5421 25 40.9954 25C40.4487 25 39.9996 24.5508 39.9996 24.0039C39.9996 23.457 40.4487 23.0078 40.9954 23.0078C41.5421 23.0078 41.9912 23.4473 41.9912 24.0039ZM41.9912 27.002C41.9912 27.5586 41.5421 27.998 40.9954 27.998C40.4389 27.998 39.9996 27.5488 39.9996 27.002C39.9996 26.4453 40.4487 26.0059 40.9954 26.0059C41.5421 25.9961 41.9912 26.4453 41.9912 27.002ZM31.994 27.002C31.994 27.5586 31.5449 27.998 30.9982 27.998C30.4515 27.998 30.0024 27.5488 30.0024 27.002C30.0024 26.4551 30.4515 26.0059 30.9982 26.0059C31.5449 26.0059 31.994 26.4453 31.994 27.002ZM35.987 39.0039C39.2967 39.0039 41.9815 36.3184 41.9815 33.0078C41.9815 29.6973 39.2967 27.0117 35.987 27.0117C32.6774 27.0117 29.9926 29.6973 29.9926 33.0078C29.9926 36.3184 32.6774 39.0039 35.987 39.0039ZM31.994 39.0039C31.994 39.5605 31.5449 40 30.9982 40C30.4417 40 30.0024 39.5508 30.0024 39.0039C30.0024 38.4473 30.4515 38.0078 30.9982 38.0078C31.5449 37.998 31.994 38.4473 31.994 39.0039ZM40.9856 40C41.5421 40 41.9815 39.5508 41.9815 39.0039C41.9815 38.4473 41.5324 38.0078 40.9856 38.0078C40.4292 38.0078 39.9898 38.457 39.9898 39.0039C39.9898 39.5508 40.4389 40 40.9856 40ZM31.994 42.002C31.994 42.5586 31.5449 42.998 30.9982 42.998C30.4515 42.998 30.0024 42.5488 30.0024 42.002C30.0024 41.4551 30.4515 41.0059 30.9982 41.0059C31.5449 41.0059 31.994 41.4453 31.994 42.002ZM41.9912 42.002C41.9912 42.5586 41.5421 42.998 40.9954 42.998C40.4389 42.998 39.9996 42.5488 39.9996 42.002C39.9996 41.4453 40.4487 41.0059 40.9954 41.0059C41.5421 40.9961 41.9912 41.4453 41.9912 42.002ZM35.987 54.0039C39.2967 54.0039 41.9815 51.3184 41.9815 48.0078C41.9815 44.6973 39.2967 42.0117 35.987 42.0117C32.6774 42.0117 29.9926 44.6973 29.9926 48.0078C29.9926 51.3184 32.6774 54.0039 35.987 54.0039ZM31.994 54.0039C31.994 54.5605 31.5449 55 30.9982 55C30.4417 55 30.0024 54.5508 30.0024 54.0039C30.0024 53.4473 30.4515 53.0078 30.9982 53.0078C31.5449 52.998 31.994 53.4473 31.994 54.0039ZM40.9856 55C41.5421 55 41.9815 54.5508 41.9815 54.0039C41.9815 53.4473 41.5324 53.0078 40.9856 53.0078C40.4292 53.0078 39.9898 53.457 39.9898 54.0039C39.9898 54.5508 40.4389 55 40.9856 55Z" fill="white"/>
</g>
</svg>
