<svg width="70" height="50" viewBox="0 0 70 50" fill="none" xmlns="http://www.w3.org/2000/svg">
<path d="M0 17.998C0 8.05664 8.05439 0 17.993 0H51.9875C61.9261 0 69.9805 8.05664 69.9805 17.998V50H0V17.998Z" fill="#F9F9FA"/>
<path d="M51.9875 0.976562C56.537 0.976562 60.8034 2.74414 64.0251 5.9668C67.2371 9.17969 69.014 13.457 69.014 18.0078V49.0234H0.97629V17.998C0.97629 13.457 2.74338 9.17969 5.96513 5.9668C9.17713 2.74414 13.4533 0.976562 17.993 0.976562H51.9875ZM51.9875 0H17.993C8.05439 0 0 8.05664 0 17.998V50H69.9805V17.998C69.9805 8.05664 61.9261 0 51.9875 0Z" fill="#909090"/>
<path d="M18 0C8.05888 0 0 8.05887 0 18V50L35 50V0H18Z" fill="#909090"/>
</svg>